<?xml version="1.0" encoding="UTF-8" standalone="no"?>
<svg
   width="16"
   height="16"
   version="1.1"
   id="svg2"
   sodipodi:docname="battery_full.svg"
   inkscape:version="1.4 (e7c3feb100, 2024-10-09)"
   xmlns:inkscape="http://www.inkscape.org/namespaces/inkscape"
   xmlns:sodipodi="http://sodipodi.sourceforge.net/DTD/sodipodi-0.dtd"
   xmlns="http://www.w3.org/2000/svg"
   xmlns:svg="http://www.w3.org/2000/svg">
  <sodipodi:namedview
     id="namedview2"
     pagecolor="#ffffff"
     bordercolor="#000000"
     borderopacity="0.25"
     inkscape:showpageshadow="2"
     inkscape:pageopacity="0.0"
     inkscape:pagecheckerboard="0"
     inkscape:deskcolor="#d1d1d1"
     inkscape:zoom="6.125"
     inkscape:cx="8.1632653"
     inkscape:cy="8.7346939"
     inkscape:window-width="918"
     inkscape:window-height="1049"
     inkscape:window-x="998"
     inkscape:window-y="27"
     inkscape:window-maximized="1"
     inkscape:current-layer="svg2" />
  <defs
     id="defs1">
    <style
       id="current-color-scheme"
       type="text/css">.ColorScheme-Text { color:#363636; } .ColorScheme-Highlight { color:#5294e2; }</style>
  </defs>
  <g
     style="fill:#ffffff;fill-opacity:1"
     class="ColorScheme-Text"
     id="g2">
    <path
       d="m15 6.5879v2.8242a1.5 1.5 0 0 0 1-1.4121 1.5 1.5 0 0 0-1-1.4121z"
       id="path1"
       style="fill:#ffffff;fill-opacity:1" />
    <rect
       x="2"
       y="6"
       width="10"
       height="4"
       ry="0"
       id="rect1"
       style="fill:#ffffff;fill-opacity:1" />
    <path
       d="m2 4c-1.108 0-2 0.892-2 2v4c0 1.108 0.892 2 2 2h10c1.108 0 2-0.892 2-2v-4c0-1.108-0.892-2-2-2h-10zm0 1h10c0.554 0 1 0.446 1 1v4c0 0.554-0.446 1-1 1h-10c-0.554 0-1-0.446-1-1v-4c0-0.554 0.446-1 1-1z"
       id="path2"
       style="fill:#ffffff;fill-opacity:1" />
  </g>
</svg>
