<?xml version="1.0" encoding="UTF-8" standalone="no"?>
<svg
   width="22"
   height="22"
   version="1.1"
   id="svg4"
   sodipodi:docname="battery_charging.svg"
   inkscape:version="1.4 (e7c3feb100, 2024-10-09)"
   xmlns:inkscape="http://www.inkscape.org/namespaces/inkscape"
   xmlns:sodipodi="http://sodipodi.sourceforge.net/DTD/sodipodi-0.dtd"
   xmlns="http://www.w3.org/2000/svg"
   xmlns:svg="http://www.w3.org/2000/svg">
  <sodipodi:namedview
     id="namedview4"
     pagecolor="#ffffff"
     bordercolor="#000000"
     borderopacity="0.25"
     inkscape:showpageshadow="2"
     inkscape:pageopacity="0.0"
     inkscape:pagecheckerboard="0"
     inkscape:deskcolor="#d1d1d1"
     inkscape:zoom="4.4545455"
     inkscape:cx="11"
     inkscape:cy="10.887755"
     inkscape:window-width="918"
     inkscape:window-height="1049"
     inkscape:window-x="998"
     inkscape:window-y="27"
     inkscape:window-maximized="1"
     inkscape:current-layer="svg4" />
  <defs
     id="defs1">
    <style
       id="current-color-scheme"
       type="text/css">
   .ColorScheme-Text { color:#363636; } .ColorScheme-Highlight { color:#4285f4; }
  </style>
  </defs>
  <g
     transform="translate(-1,-1)"
     class="ColorScheme-Text"
     fill="currentColor"
     id="g4"
     style="fill:#ffffff;fill-opacity:1">
    <path
       d="m10.834 8-3.334 5h3l-0.75 3h0.416l3.334-5h-3l0.75-3z"
       id="path1"
       style="fill:#ffffff;fill-opacity:1" />
    <g
       id="g3"
       style="fill:#ffffff;fill-opacity:1">
      <path
         d="m4 7c-1.108 0-2 0.892-2 2v6c0 1.108 0.892 2 2 2h13c1.108 0 2-0.892 2-2v-6c0-1.108-0.892-2-2-2zm0 1h13c0.554 0 1 0.446 1 1v6c0 0.554-0.446 1-1 1h-13c-0.554 0-1-0.446-1-1v-6c0-0.554 0.446-1 1-1z"
         id="path2"
         style="fill:#ffffff;fill-opacity:1" />
      <path
         d="m4.55 9a0.55 0.55 0 0 0-0.55 0.55v4.9c0 0.304 0.246 0.55 0.55 0.55h4.42l0.25-1h-1.72a1 1 0 0 1-0.832-1.555l2.297-3.445zm7.481 0-0.25 1h1.72c0.187 0 0.355 0.053 0.5 0.137v-0.587a0.55 0.55 0 0 0-0.553-0.55h-1.418zm1.97 3.053-1.967 2.947h1.414a0.55 0.55 0 0 0 0.551-0.55v-2.397zm5.999-2.053v4a2 2 0 0 0 2-2 2 2 0 0 0-2-2z"
         id="path3"
         style="fill:#ffffff;fill-opacity:1" />
    </g>
  </g>
</svg>
