<?xml version="1.0" encoding="UTF-8" standalone="no"?>
<svg
   width="16"
   height="16"
   version="1.1"
   id="svg2"
   sodipodi:docname="battery-mid.svg"
   inkscape:version="1.4 (e7c3feb100, 2024-10-09)"
   xmlns:inkscape="http://www.inkscape.org/namespaces/inkscape"
   xmlns:sodipodi="http://sodipodi.sourceforge.net/DTD/sodipodi-0.dtd"
   xmlns="http://www.w3.org/2000/svg"
   xmlns:svg="http://www.w3.org/2000/svg">
  <sodipodi:namedview
     id="namedview2"
     pagecolor="#ffffff"
     bordercolor="#000000"
     borderopacity="0.25"
     inkscape:showpageshadow="2"
     inkscape:pageopacity="0.0"
     inkscape:pagecheckerboard="0"
     inkscape:deskcolor="#d1d1d1"
     inkscape:zoom="6.125"
     inkscape:cx="10.938776"
     inkscape:cy="7.9183673"
     inkscape:window-width="918"
     inkscape:window-height="1049"
     inkscape:window-x="998"
     inkscape:window-y="27"
     inkscape:window-maximized="1"
     inkscape:current-layer="svg2" />
  <defs
     id="defs1">
    <style
       id="current-color-scheme"
       type="text/css">.ColorScheme-Text {
                color:#363636;
            }</style>
  </defs>
  <rect
     x="2"
     y="5"
     width="5"
     height="6"
     rx="1"
     ry="1"
     fill="#363636"
     id="rect1"
     style="fill:#ffffff;fill-opacity:1" />
  <path
     d="m15 6v4a1 2 0 0 0 1-2 1 2 0 0 0-1-2z"
     fill="#363636"
     id="path1"
     style="fill:#ffffff;fill-opacity:1" />
  <path
     d="m3 3c-1.662 0-3 1.338-3 3v4c0 1.662 1.338 3 3 3h8c1.662 0 3-1.338 3-3v-4c0-1.662-1.338-3-3-3zm0 1h8c1.108 0 2 0.892 2 2v4c0 1.108-0.892 2-2 2h-8c-1.108 0-2-0.892-2-2v-4c0-1.108 0.892-2 2-2z"
     fill="#363636"
     id="path2"
     style="fill:#ffffff;fill-opacity:1" />
</svg>
