<?xml version="1.0" encoding="UTF-8" standalone="no"?>
<svg
   width="40.001701"
   height="39.999504"
   viewBox="0 0 10.583575 10.582994"
   version="1.1"
   id="svg5"
   xmlns="http://www.w3.org/2000/svg"
   xmlns:svg="http://www.w3.org/2000/svg">
  <defs
     id="defs5" />
  <path
     fill="#ffffff"
     d="m 5.2852251,-1.3138604e-7 -0.02,0.002000001386 c -0.25,0.025 -0.246,0.237 -0.327,0.758 a 4.563,4.55 28.59 0 0 -0.51,0.068 c -0.234,-0.538 -0.314,-0.724 -0.524,-0.65 -0.238,0.086 -0.18,0.291 -0.134,0.82300003 a 4.563,4.55 28.59 0 0 -0.464,0.191 c -0.336,-0.40700003 -0.44,-0.59000003 -0.668,-0.48500003 -0.202,0.094 -0.129,0.283 0.082,0.82900003 a 4.563,4.55 28.59 0 0 -0.406,0.31 c -0.426,-0.303 -0.575,-0.453 -0.767,-0.292 -0.169,0.142 -0.05,0.305 0.288,0.767 a 4.563,4.55 28.59 0 0 -0.307,0.4 c -0.494,-0.17 -0.68000003,-0.271 -0.81800003,-0.063 -0.12,0.181 0.036,0.305 0.47700003,0.643 a 4.563,4.55 28.59 0 0 -0.20300003,0.497 c -0.512,-0.057 -0.713,-0.113 -0.802,0.119 -0.079,0.207 0.104,0.292 0.63,0.534 a 4.563,4.55 28.59 0 0 -0.068,0.527 c -0.505,0.069 -0.713,0.066 -0.742,0.312 -0.026,0.22 0.173,0.256 0.748,0.363 a 4.563,4.55 28.59 0 0 0.066,0.483 c -0.485,0.234 -0.692,0.289 -0.644,0.538 0.043,0.217 0.244,0.191 0.818,0.119 a 4.563,4.55 28.59 0 0 0.19600003,0.476 c -0.41700003,0.353 -0.60500003,0.457 -0.49600003,0.688 0.097,0.201 0.285,0.124 0.83600003,-0.095 l -0.052,-0.09 a 4.563,4.55 28.59 0 0 0.35,0.466 c -0.295,0.439 -0.442,0.592 -0.275,0.78 0.144,0.164 0.304,0.044 0.746,-0.297 a 4.563,4.55 28.59 0 0 0.413,0.318 c -0.208,0.555 -0.28,0.744 -0.077,0.836 0.228,0.104 0.332,-0.082 0.662,-0.49 a 4.563,4.55 28.59 0 0 0.486,0.2 c -0.076,0.5620001 -0.1,0.7600001 0.114,0.8040001 0.246,0.05 0.304,-0.153 0.538,-0.6280001 a 4.563,4.55 28.59 0 0 0.507,0.07 c 0.083,0.5690001 0.113,0.7680001 0.333,0.7510001 0.25,-0.02 0.251,-0.23 0.343,-0.7470001 a 4.563,4.55 28.59 0 0 0.526,-0.068 c 0.215,0.5100001 0.296,0.6930001 0.5,0.6220001 0.235,-0.08 0.188,-0.283 0.148,-0.7910001 a 4.563,4.55 28.59 0 0 0.463,-0.186 c 0.372,0.434 0.503,0.586 0.68,0.454 0.197,-0.146 0.092,-0.325 -0.098,-0.79 a 4.563,4.55 28.59 0 0 0.428,-0.325 c 0.465,0.33 0.63,0.445 0.768,0.274 0.156,-0.19 0.01,-0.339 -0.29,-0.745 a 4.563,4.55 28.59 0 0 0.328,-0.43 c 0.507,0.21 0.693,0.282 0.79,0.088 0.11,-0.222 -0.068,-0.333 -0.453,-0.667 a 4.563,4.55 28.59 0 0 0.193,-0.474 c 0.5599999,0.06 0.7589999,0.08 0.7969999,-0.136 0.043,-0.244 -0.159,-0.3 -0.6259999,-0.514 a 4.563,4.55 28.59 0 0 0.068,-0.513 c 0.5659999,-0.088 0.7659999,-0.12 0.7459999,-0.34 -0.022,-0.25 -0.233,-0.249 -0.7489999,-0.336 a 4.563,4.55 28.59 0 0 -0.07,-0.51 c 0.5219999,-0.24 0.7049999,-0.325 0.6259999,-0.53 -0.088,-0.232 -0.29,-0.177 -0.7979999,-0.12 a 4.563,4.55 28.59 0 0 -0.201,-0.485 c 0.457,-0.353 0.6169999,-0.477 0.494,-0.661 -0.142,-0.211 -0.327,-0.103 -0.84,0.075 a 4.563,4.55 28.59 0 0 -0.312,-0.404 c 0.335,-0.482 0.452,-0.648 0.278,-0.787 -0.195,-0.156 -0.34,-0.004 -0.758,0.308 a 4.563,4.55 28.59 0 0 -0.415,-0.314 c 0.21,-0.54000003 0.284,-0.72800003 0.085,-0.82300003 h -0.001 c -0.227,-0.106 -0.333,0.078 -0.67,0.48400003 a 4.563,4.55 28.59 0 0 -0.473,-0.19200003 c 0.076,-0.576 0.102,-0.776 -0.115,-0.82 -0.25,-0.05 -0.305,0.158 -0.544,0.647 a 4.563,4.55 28.59 0 0 -0.502,-0.067 c -0.092,-0.544 -0.127,-0.753 -0.313,-0.75900000138576 h -0.02 z M 6.4322251,1.5999999 c 0.16,0 0.391,0.094 0.632,0.227 0.442,0.245 0.916,0.624 1.042,0.794 0.606,0.648 1.047,1.452 1.073,2.743 0.005,0.24 -0.018,0.459 -0.075,0.637 -0.061,0.186 -0.185,0.372 -0.38,0.462 -0.163,0.069 -0.343,0.117 -0.51,0.04 -0.522,-0.24 -1.178,-0.653 -1.704,-0.964 -0.088,-0.053 -0.153,-0.138 -0.162,-0.18 v -0.002 l 0.002,-0.065 a 1.06,1.06 0 0 0 -0.607,-0.958 0.4,0.4 0 0 1 -0.042,-0.135 32,32 0 0 1 -0.01,-1.896 c 0.002,-0.433 0.313,-0.688 0.696,-0.7 l 0.03,-0.003 z m -2.264,0.023 h 0.025 a 0.73,0.73 0 0 1 0.41,0.123 c 0.139,0.108 0.27,0.24 0.284,0.424 0.047,0.572 0.01,1.347 -0.004,1.958 a 0.4,0.4 0 0 1 -0.068,0.219 1.06,1.06 0 0 0 -0.582,0.945 l 0.002,0.05 a 0.4,0.4 0 0 1 -0.122,0.148 c -0.54,0.33 -1.097,0.647 -1.649,0.939 -0.377,0.211 -0.751,0.065 -0.95,-0.262 -0.26,-0.341 -0.095,-1.688 0.044,-1.998 0.267,-0.845 0.75,-1.625 1.864,-2.28 0.207,-0.123 0.408,-0.21 0.591,-0.248 a 1,1 0 0 1 0.13,-0.016 z m 1.124,3.14 a 0.53,0.53 0 0 1 0.529,0.528 0.53,0.53 0 0 1 -0.53,0.53 0.53,0.53 0 0 1 -0.529,-0.53 0.53,0.53 0 0 1 0.53,-0.529 z m -0.625,1.422 h 0.01 a 0.1,0.1 0 0 1 0.042,0.005 l 0.017,0.002 a 1.06,1.06 0 0 0 0.556,0.158 1.06,1.06 0 0 0 0.554,-0.157 0.4,0.4 0 0 1 0.2,0.03 34,34 0 0 1 1.637,0.958 c 0.372,0.22 0.433,0.618 0.249,0.954 -0.167,0.396 -1.414,0.927 -1.753,0.962 -0.865,0.19 -1.782,0.162 -2.907,-0.474 a 2,2 0 0 1 -0.51,-0.389 0.75,0.75 0 0 1 -0.204,-0.563 c 0.023,-0.174 0.074,-0.353 0.225,-0.458 0.472,-0.327 1.162,-0.68 1.698,-0.975 a 0.44,0.44 0 0 1 0.186,-0.053"
     id="path5" />
</svg>
