<?xml version="1.0" encoding="UTF-8" standalone="no"?>
<svg
   width="36.220001"
   height="38.810013"
   version="1.1"
   id="svg4"
   xmlns="http://www.w3.org/2000/svg"
   xmlns:svg="http://www.w3.org/2000/svg">
  <defs
     id="defs2" />
  <path
     fill="#ffffff"
     d="m 9.8639997,6.3060128 c -0.408,0 -0.788,0.16 -1.132,0.324 l -0.81,0.486 c -3.968,2.618 -6.764,6.6620002 -7.60000004,11.4000002 0,0.004 -0.08,-0.006 -0.08,0 -0.022,0.13 0.02,0.272 0,0.404 -0.12,0.8 -0.24200000332275,1.59 -0.24200000332275,2.426 0,9.644 8.10800004332275,17.464 18.11000034332275,17.464 10.002,0 18.11,-7.82 18.11,-17.464 0,-0.742 -0.066,-1.466 -0.16,-2.184 -0.03,-0.222 -0.124,-0.426 -0.162,-0.646 -0.836,-4.738 -3.632,-8.7820002 -7.6,-11.4000002 l -0.81,-0.486 c -0.344,-0.162 -0.724,-0.324 -1.132,-0.324 a 2.67,2.67 0 0 0 -2.668,2.67 c 0,0.838 0.446,1.6120002 1.052,2.1000002 0.192,0.156 0.416,0.308 0.646,0.406 a 12.64,12.64 0 0 1 5.176,7.034 c 0.014,0.054 0.066,0.106 0.08,0.16 0.27,0.99 0.404,2 0.404,3.074 0,6.89 -5.792,12.452 -12.936,12.452 -7.144,0 -12.9360003,-5.562 -12.9360003,-12.452 0,-1.072 0.136,-2.084 0.404,-3.072 0.016,-0.06 0.064,-0.106 0.08,-0.162 a 12.64,12.64 0 0 1 5.1760003,-7.034 c 0.23,-0.1 0.454,-0.25 0.646,-0.404 0.606,-0.49 1.052,-1.2640002 1.052,-2.1020002 a 2.67,2.67 0 0 0 -2.6680003,-2.67 M 18.11,1.2817383e-5 A 2.58,2.58 0 0 1 20.698,2.5880128 V 18.112013 a 2.58,2.58 0 0 1 -2.588,2.586 2.58,2.58 0 0 1 -2.588,-2.586 V 2.5880128 A 2.58,2.58 0 0 1 18.11,1.2817383e-5"
     overflow="visible"
     id="path2" />
</svg>
